PathFileType	4	(X/Y/Z)	C:/Users/beibeiliu/ov580/test_trc/User1\sequence.30_training_dense_left.trc
DataRate	CameraRate	NumFrames	NumMarkers	Units	OrigDataRate	OrigDataStartFrame	OrigNumFrames
120	120	23	19	mm	120	114	227
Frame#	Time	ThumbCMC			ThumbMCP			ThumbIP			ThumbTip			IndexMCP			IndexPIP			IndexTip			MiddleMCP			MiddlePIP			MiddleTip			RingMCP			RingPIP			RingTip			PinkyMCP			PinkyPIP			PinkyTip			BackHand1			BackHand2			BackHand3	
		X0	Y0	Z0	X1	Y1	Z1	X2	Y2	Z2	X3	Y3	Z3	X4	Y4	Z4	X5	Y5	Z5	X6	Y6	Z6	X7	Y7	Z7	X8	Y8	Z8	X9	Y9	Z9	X10	Y10	Z10	X11	Y11	Z11	X12	Y12	Z12	X13	Y13	Z13	X14	Y14	Z14	X15	Y15	Z15	X16	Y16	Z16	X17	Y17	Z17	X18	Y18	Z18	
113	0.941667	-62.0614	-22.4462	66.445	-43.7928	-35.1461	58.0485	-22.329	-42.6026	41.899	-2.53545	-47.7737	35.5769	-72.6852	-23.7381	-18.1491	-70.6562	-22.1531	-46.2111	-70.7314	-18.1845	-71.0102	-105.941	-13.3002	-33.0435	-103.031	-16.8591	-54.5287	-110.897	-16.6473	-88.0445	-131.186	-21.6835	-26.5051	-137.474	-34.1213	-47.47	-148.169	-52.8167	-68.9783	-158.204	-29.1916	1.30309	-167.763	-50.0594	-11.5962	-171.019	-73.8589	-25.1309	-118.533	2.85816	28.3752	-121.973	13.996	63.1626	-86.2387	-0.0949377	48.0854	
114	0.95	-67.5744	-20.5586	69.1277	-43.7153	-34.3885	52.6651	-23.7573	-40.4452	37.0928	-7.06437	-46.8718	32.5821	-73.4851	-22.3226	-19.073	-72.0999	-22.8478	-45.271	-76.2816	-18.1856	-67.6915	-103.471	-16.6085	-30.7127	-109.411	-21.8534	-59.9531	-111.945	-25.2397	-83.6162	-136.019	-25.918	-26.6719	-140.669	-42.024	-44.5553	-148.013	-65.5397	-59.4402	-155.341	-31.1613	0.714568	-160.023	-54.4684	-10.1017	-160.541	-82.2311	-15.7248	-123.761	2.56684	32.1068	-124.798	12.4629	59.8157	-90.6094	2.17295	47.1045	
115	0.958333	-69.286	-19.8023	65.2906	-47.3664	-32.0226	55.8572	-23.1172	-38.3031	37.3239	-7.02946	-43.2937	31.0765	-74.7418	-21.6254	-18.7674	-73.2099	-21.1291	-46.338	-74.3111	-18.4203	-67.4548	-109.241	-17.4148	-32.4871	-113.907	-25.5105	-60.6982	-115.66	-32.813	-84.5634	-132.94	-28.6886	-23.1446	-141.438	-54.2777	-45.7387	-145.737	-79.7566	-51.5775	-156.406	-38.7446	-1.87503	-158.592	-62.1706	-5.23394	-146.557	-90.6046	-5.85908	-126.155	1.75796	28.1458	-124.03	12.2966	60.3167	-88.2362	-0.270786	45.0576	
116	0.966667	-70.8085	-17.6682	67.8373	-44.9535	-29.0459	51.2735	-25.7781	-34.516	38.7828	-8.17815	-39.8005	26.8911	-78.6332	-21.2318	-19.4652	-78.7378	-20.5581	-43.3998	-78.1056	-16.8424	-69.8172	-110.804	-18.7315	-31.309	-111.286	-28.9617	-60.0331	-120.464	-40.603	-86.3268	-135.549	-33.2952	-23.1213	-138.318	-62.0353	-41.6989	-143.054	-89.9282	-42.0249	-152.817	-44.3016	-1.38175	-154.728	-68.2036	-2.25327	-141.597	-95.1212	4.51737	-125.335	1.85477	26.693	-130.653	12.4878	59.6094	-92.0849	2.7164	46.5745	
117	0.975	-71.2355	-15.382	67.2732	-43.5961	-24.1923	52.3762	-28.0398	-29.2422	37.4126	-10.1969	-33.4611	27.9203	-81.7578	-18.6541	-23.0923	-78.69	-19.25	-47.0837	-82.4151	-16.2068	-72.3307	-112.644	-21.5537	-31.9413	-116.239	-34.7961	-58.0409	-121.539	-51.6566	-82.6761	-131.59	-40.3158	-23.6761	-133.016	-67.3196	-36.3339	-132.834	-99.8892	-27.4699	-154.397	-47.8762	1.10553	-148.34	-75.4673	1.95736	-129.785	-98.0208	12.0165	-130.574	-1.92081	24.1069	-130.884	7.94265	62.6915	-99.7005	2.58934	43.0601	
118	0.983333	-75.0528	-12.5059	63.2015	-46.7868	-19.5497	48.8303	-30.3482	-23.4001	31.865	-7.37659	-24.5182	27.7725	-81.2149	-16.0177	-23.2129	-81.3057	-17.0997	-48.7169	-86.8373	-16.1098	-71.6051	-111.306	-25.2803	-32.8369	-111.792	-40.3193	-57.9309	-117.025	-63.7057	-81.9419	-133.37	-49.5205	-24.3566	-129.8	-78.1063	-30.2487	-121.396	-106.813	-11.7238	-150.498	-55.1041	1.74783	-142.275	-80.1143	4.06689	-118.507	-97.2621	17.5748	-136.319	-3.77385	25.6914	-137.916	5.86341	60.7056	-99.828	3.34759	45.7566	
119	0.991667	-76.9566	-8.56226	60.9338	-47.4437	-12.3277	48.0407	-28.7706	-15.1501	29.9919	-9.55888	-17.5636	22.0424	-82.889	-14.4534	-21.4664	-84.4061	-15.9669	-46.6388	-90.6481	-15.1688	-73.6482	-114.347	-29.4623	-35.4517	-111.921	-48.4759	-61.3225	-111.111	-74.0115	-81.9394	-128.46	-54.9073	-22.9864	-116.951	-85.6517	-23.9059	-109.559	-105.784	-0.745506	-144.045	-63.0011	2.30153	-131.682	-85.7957	9.4481	-105.564	-93.8568	25.1811	-138.573	-8.35276	20.5635	-143.14	1.23575	56.3546	-107.718	5.14517	43.3025	
120	1	-77.0902	-1.85202	61.353	-53.9949	-8.65351	47.5459	-33.4337	-10.2188	27.7293	-15.5907	-9.41836	21.5413	-88.7349	-13.4258	-27.0361	-90.3126	-16.9008	-47.604	-94.6343	-15.2607	-72.3765	-114.894	-32.8034	-32.7497	-108.781	-53.1847	-59.6038	-105.667	-78.8362	-75.8405	-122.539	-57.0998	-19.1011	-108.279	-88.1725	-18.4603	-94.826	-105.521	10.5504	-134.369	-70.2673	3.57174	-115.981	-87.8744	13.3317	-96.5221	-92.0909	28.1877	-141.675	-14.0131	23.8072	-146.033	-4.4395	56.4265	-107.228	4.7556	37.5371	
121	1.00833	-78.3734	2.57884	57.7303	-55.3345	-2.79692	45.973	-35.9165	-0.473202	25.6417	-14.8723	3.14609	13.6435	-93.4027	-14.9402	-27.8718	-95.1807	-17.8723	-49.2399	-104.495	-18.8543	-76.2084	-113.359	-39.8699	-37.1876	-105.338	-54.5789	-57.4322	-101.424	-82.9253	-74.5908	-119.355	-66.3738	-16.5598	-99.3515	-93.6932	-12.7326	-82.6866	-102.577	13.4902	-131.043	-75.536	6.28073	-109.145	-91.0183	16.1981	-85.8498	-87.3366	34.4181	-139.639	-21.3162	20.2351	-148.068	-9.93133	57.1228	-113.975	4.82549	37.6075	
122	1.01667	-84.7205	3.49461	56.4831	-59.0108	2.80758	38.911	-37.6986	9.09234	19.5971	-21.0389	12.9403	8.47271	-95.964	-14.065	-31.3491	-97.4455	-18.2592	-49.7216	-104.248	-19.5411	-72.7208	-112.964	-42.5037	-36.2168	-103.317	-59.7745	-58.2314	-91.3878	-84.9287	-77.057	-110.808	-71.4791	-16.5382	-86.7027	-93.8444	-11.494	-70.0088	-98.4513	13.03	-118.204	-82.8744	8.87325	-97.0549	-89.1352	18.0009	-73.9596	-76.4515	34.4161	-141.238	-29.1181	18.993	-149.447	-14.072	55.0598	-115.946	3.63059	35.9068	
123	1.025	-84.5554	10.1757	50.7548	-61.2763	9.76891	32.7263	-45.8442	14.1442	13.2618	-27.9844	22.047	5.83456	-97.0479	-11.5007	-30.6265	-103.737	-19.0491	-54.3585	-111.436	-22.2477	-78.2521	-109.822	-43.812	-36.9534	-101.441	-63.9413	-57.8063	-85.7111	-83.3852	-76.862	-104.729	-67.509	-16.4178	-76.5002	-89.8879	-12.9901	-54.2224	-92.1243	10.2841	-111.987	-80.3969	8.82926	-84.7803	-84.3254	18.4281	-64.309	-74.4401	34.9861	-140.107	-33.2895	23.8399	-145.908	-19.2644	52.8705	-122.787	0.107509	36.2488	
124	1.03333	-90.4379	12.2871	48.6189	-68.3135	13.2404	30.568	-52.8886	24.739	8.94231	-39.3216	32.0881	-0.0416069	-103.125	-14.2392	-30.0894	-107.601	-22.3024	-51.4955	-116.622	-28.3335	-75.3411	-107.591	-43.2243	-36.4891	-96.1253	-64.0016	-58.811	-79.2128	-81.0936	-77.0659	-98.9105	-69.4257	-15.6263	-68.9898	-82.63	-17.4231	-40.795	-82.8515	3.74563	-102.708	-82.1587	11.4631	-73.9692	-79.9953	19.379	-54.0175	-63.695	34.307	-135.809	-35.775	20.5965	-147.291	-25.7208	56.5499	-123.893	-1.92963	36.132	
125	1.04167	-97.6699	16.6614	47.2104	-76.0611	22.6455	30.1734	-65.308	32.01	7.21891	-55.5427	42.6619	-5.64082	-107.389	-13.1502	-29.671	-110.817	-21.6074	-52.1097	-120.073	-34.0749	-74.5638	-104.787	-47.1285	-38.4622	-91.0971	-62.8643	-57.8388	-71.0438	-80.0234	-76.5187	-90.68	-68.932	-15.4497	-55.3728	-73.7764	-18.2367	-31.0707	-75.2796	-0.709579	-91.9471	-79.4452	11.8169	-63.5872	-73.7619	17.3746	-46.5075	-55.8226	32.5914	-134.105	-44.0818	23.4225	-144.456	-32.2377	54.9031	-128.135	-4.66008	34.5294	
126	1.05	-106.215	18.9919	45.1741	-89.152	24.808	26.4001	-82.9385	38.1898	-1.38794	-75.8654	49.2994	-14.1931	-114.252	-18.8576	-33.9747	-115.588	-28.0735	-52.6573	-122.664	-45.8999	-74.448	-105.783	-49.6908	-31.0627	-89.6221	-58.4501	-54.8131	-66.3751	-72.0718	-73.6936	-80.9754	-67.4536	-14.9841	-52.1274	-66.5137	-17.9312	-26.4198	-60.4129	-7.16806	-81.4296	-77.8433	13.9183	-57.5188	-65.6672	14.7554	-42.7113	-42.2875	31.2636	-131.138	-48.7939	24.6103	-139.985	-37.5452	62.5462	-134.364	-12.1093	33.106	
127	1.05833	-118.252	18.7516	43.4202	-103.31	30.8863	21.2819	-100.784	35.0947	-4.61239	-99.5272	50.8321	-25.0992	-118.972	-27.6665	-30.8133	-119.063	-36.3438	-50.531	-122.264	-55.9162	-72.3572	-102.397	-51.7953	-33.7697	-83.7973	-61.3302	-53.6261	-58.2192	-70.5943	-72.2025	-77.7779	-62.4296	-13.0753	-48.8364	-58.7104	-17.9287	-21.4822	-40.8397	-10.9422	-71.6509	-71.8644	16.1397	-47.5528	-57.1024	17.4344	-41.9517	-26.6464	28.4985	-126.789	-51.2687	33.82	-137.276	-43.4834	62.3456	-137.423	-19.5694	34.8663	
128	1.06667	-129.228	15.5536	42.4333	-119.052	27.9343	17.2379	-119.182	31.5513	-10.3632	-119.264	43.6828	-27.565	-122.903	-33.8554	-26.1265	-121.558	-46.8315	-49.2657	-120.624	-58.9877	-68.3043	-98.7553	-56.7612	-29.5264	-82.2293	-61.0256	-52.2692	-54.7938	-65.2707	-68.9005	-72.1129	-58.9466	-11.5133	-47.8828	-48.8301	-19.6178	-23.995	-24.5936	-13.5508	-67.8063	-63.1955	16.4681	-43.7377	-42.9357	14.5832	-47.7071	-10.6441	24.1908	-119.117	-56.1231	36.4972	-131.841	-46.9863	70.1152	-141.418	-22.9436	40.0789	
129	1.075	-138.133	12.8474	40.6473	-130.635	23.7625	14.1792	-133.861	25.6728	-15.3009	-134.618	34.4168	-30.1816	-126.824	-35.4411	-25.7827	-123.19	-51.6211	-50.1602	-120.318	-64.8639	-66.4531	-96.6597	-57.5276	-24.2285	-78.6643	-58.0746	-50.9711	-53.31	-57.7872	-69.694	-70.0061	-53.182	-9.88125	-45.9795	-38.1073	-20.9695	-29.5253	-11.6546	-15.8502	-60.734	-56.1944	16.7229	-45.8507	-30.579	9.85479	-53.3376	0.491091	19.8672	-114.881	-56.0835	40.0659	-127.872	-45.8316	71.3051	-141.295	-26.7539	39.1153	
130	1.08333	-142.66	9.62896	39.0493	-141.203	20.9522	10.9799	-143.306	23.5496	-15.215	-148.829	32.0935	-33.321	-128.077	-36.213	-25.8722	-122.557	-52.4854	-47.6358	-117.316	-69.0223	-67.9724	-96.8254	-52.6781	-27.3679	-77.9305	-52.8947	-50.4727	-53.2134	-45.312	-70.0339	-70.9287	-49.3609	-8.48851	-48.8254	-24.1846	-25.5226	-35.26	3.59184	-17.7165	-59.1657	-45.5918	12.6462	-48.0688	-21.6827	6.63226	-57.072	6.93777	18.6377	-109.287	-56.6831	38.3113	-120.71	-44.1996	71.9877	-140.851	-28.4686	43.085	
131	1.09167	-142.743	10.3509	42.419	-143.036	21.1654	13.7507	-148.889	24.497	-10.9609	-153.312	30.945	-32.0155	-126.472	-36.2445	-28.0047	-122.618	-47.2322	-46.71	-113.696	-63.8721	-66.8493	-94.5741	-49.0186	-29.7004	-75.6603	-43.9595	-53.3021	-48.0053	-29.4429	-70.2685	-68.8084	-41.333	-11.5897	-46.8413	-18.4302	-24.7871	-37.6959	8.67904	-15.2528	-60.0766	-39.6219	10.548	-46.6088	-14.1242	6.41563	-58.9016	15.1413	20.3853	-105.213	-52.5628	41.0791	-120.367	-42.9954	71.1845	-138.042	-28.4264	44.3171	
132	1.1	-143.714	11.0445	42.0771	-147.488	24.3884	14.1889	-153.306	24.6488	-10.7355	-158.585	32.9875	-27.616	-124.765	-32.6418	-26.8021	-119.817	-45.643	-49.0466	-113.704	-56.745	-70.813	-92.9469	-42.1265	-32.1782	-71.9903	-34.1035	-54.4626	-46.3982	-11.1244	-68.0014	-70.451	-33.7089	-16.6099	-47.7011	-9.29307	-25.0636	-43.4481	18.465	-14.9604	-58.6014	-34.0196	8.57429	-48.1487	-5.98515	5.20036	-61.6666	17.8059	21.4898	-103.931	-47.2307	35.9606	-118.182	-39.5596	73.3574	-137.807	-27.4442	38.259	
133	1.10833	-145.793	14.2012	41.9232	-148.87	26.7674	19.5308	-153.875	27.3066	-7.0585	-164.597	34.7138	-28.6677	-126.666	-26.3548	-27.2832	-119.259	-38.1545	-51.1201	-112.335	-48.9423	-76.6138	-92.8987	-36.1402	-32.1297	-75.4746	-22.8119	-57.1742	-48.8853	0.782989	-63.2662	-67.6535	-33.1256	-14.2069	-51.4201	-4.85	-27.3122	-46.9267	25.6167	-11.0318	-53.9899	-30.4337	8.40785	-44.2243	-2.54495	3.76595	-61.0726	20.3929	17.2724	-104.076	-45.3748	38.6473	-114.279	-39.2073	71.2853	-134.835	-25.7129	42.1143	
134	1.11667	-143.29	16.6759	46.9772	-147.065	26.2479	18.013	-155.357	28.9576	-5.96129	-164.745	37.7573	-24.2404	-126.337	-22.044	-27.4695	-124.24	-29.7704	-57.1268	-111.584	-39.0247	-77.3482	-95.1679	-29.7045	-34.2751	-75.1849	-18.2566	-56.3617	-54.1134	15.5082	-61.5646	-68.2191	-28.2145	-17.5101	-51.9284	0.847042	-30.1037	-46.7252	28.9889	-9.72333	-51.7819	-24.8301	3.17309	-48.0694	4.09619	-0.423146	-62.5812	26.0902	15.1723	-99.2558	-41.3887	33.0404	-112.928	-38.3846	65.558	-135.031	-23.3969	39.2875	
135	1.125	-144.21	17.9411	51.2931	-149.703	30.5366	24.7697	-158.279	32.4877	-3.15878	-170.462	42.4452	-19.5897	-126.9	-17.9045	-31.6546	-121.246	-25.5368	-57.0967	-111.6	-31.222	-81.5891	-96.1561	-26.0248	-34.0798	-79.3265	-12.4847	-58.0264	-52.5744	20.3288	-59.5803	-72.9786	-22.287	-22.8237	-50.9993	3.13572	-33.6701	-49.0458	31.1035	-17.4368	-57.3069	-23.964	3.73563	-45.7385	5.43361	-4.80189	-56.4805	30.7334	9.03921	-101.043	-38.3724	33.6901	-105.774	-38.2138	65.7328	-133.414	-20.7208	40.7697	
